<?xml version="1.0" encoding="UTF-8"?>
<svg id="Layer_1" data-name="Layer 1" xmlns="http://www.w3.org/2000/svg" viewBox="0 0 510.24 170.08">
  <defs>
    <style>
      .cls-1 {
        fill: #82bf2d;
      }

      .cls-1, .cls-2, .cls-3, .cls-4 {
        fill-rule: evenodd;
      }

      .cls-2 {
        fill: #009037;
      }

      .cls-5, .cls-4 {
        fill: #e8f0e2;
      }

      .cls-3 {
        fill: #53a434;
      }
    </style>
  </defs>
  <g>
    <polygon class="cls-2" points="193.14 112.82 170.34 112.82 186.51 23.98 209.31 23.98 193.14 112.82"/>
    <polygon class="cls-2" points="82.85 112.82 63.67 112.82 35.77 23.98 60.79 23.98 78.06 87.91 119.32 23.98 145.45 23.98 82.85 112.82"/>
    <polygon class="cls-2" points="155.54 112.82 132.74 112.82 148.91 23.98 171.71 23.98 155.54 112.82"/>
    <path class="cls-1" d="M430.48,48.62c0-.13.18-1.2.2-1.73.09-2.53-1.12-3.73-4.59-3.73h-40.04s-3.3,18.11-3.3,18.11h40.04c3.89,0,5.76-1.87,6.3-5.06l1.39-7.59h0ZM450.87,61.4c-2.29,13.19-6.26,19.05-23.35,19.05h-6.39s30.51,32.36,30.51,32.36h-29.47s-30.8-32.36-30.8-32.36h-12.23s-5.91,32.36-5.91,32.36h-22.8s16.17-88.84,16.17-88.84h71.18c11.26,0,17.18,5.33,16.83,15.05-.04,1.2-.23,2.53-.42,3.99l-3.31,18.38Z"/>
    <polygon class="cls-1" points="358.38 23.98 311.41 66.57 342.03 112.81 315.86 112.81 285.24 66.57 332.21 23.98 358.38 23.98"/>
    <polygon class="cls-3" points="316.8 23.98 269.83 66.57 300.46 112.81 274.28 112.81 243.66 66.57 290.63 23.98 316.8 23.98"/>
    <polygon class="cls-2" points="275.22 23.98 228.25 66.57 258.88 112.81 232.7 112.81 202.08 66.57 249.05 23.98 275.22 23.98"/>
  </g>
  <g>
    <path class="cls-4" d="M77.29,131.12h-9.47s0,4.8,0,4.8h9.47c.73,0,1.23-.11,1.5-.32.27-.21.4-.58.4-1.12v-1.94c0-.52-.14-.9-.4-1.1-.27-.21-.77-.32-1.5-.32h0ZM63.67,146.1v-18.11s15.48,0,15.48,0c1.44,0,2.48.28,3.13.83.64.55.96,1.44.96,2.68v4.04c0,1.22-.32,2.11-.96,2.67-.65.55-1.69.83-3.13.83h-11.34s0,7.06,0,7.06h-4.14Z"/>
    <path class="cls-4" d="M110.38,131.12h-9.47s0,5.04,0,5.04h9.47c.73,0,1.23-.11,1.5-.32.27-.21.4-.59.4-1.12v-2.17c0-.52-.13-.9-.4-1.1-.27-.21-.77-.32-1.5-.32h0ZM96.76,146.1v-18.11s15.48,0,15.48,0c1.44,0,2.48.28,3.13.83.65.55.97,1.44.97,2.68v4.25c0,1.22-.32,2.11-.97,2.67-.64.56-1.68.84-3.13.84h-2.36s8.36,6.84,8.36,6.84h-6.05s-7.3-6.84-7.3-6.84h-3.99s0,6.84,0,6.84h-4.14Z"/>
    <path class="cls-4" d="M135.74,142.69h13.89s0-11.46,0-11.46h-13.89s0,11.46,0,11.46h0ZM131.53,132.27c0-1.65.31-2.77.93-3.37.62-.61,1.8-.91,3.56-.91h13.33c1.76,0,2.95.3,3.56.91.62.61.92,1.73.92,3.37v9.54c0,1.66-.31,2.78-.92,3.39-.62.6-1.81.9-3.56.9h-13.33c-1.76,0-2.95-.3-3.56-.9-.62-.6-.93-1.73-.93-3.39v-9.54Z"/>
    <polygon class="cls-4" points="169.72 146.1 169.72 127.99 188.03 127.99 188.03 131.15 173.94 131.15 173.94 135.92 181.56 135.92 181.56 139.23 173.94 139.23 173.94 146.1 169.72 146.1"/>
    <polygon class="cls-4" points="200.27 146.1 200.27 127.99 218.81 127.99 218.81 131.08 204.49 131.08 204.49 135.12 212.85 135.12 212.85 138.2 204.49 138.2 204.49 142.69 218.98 142.69 218.98 146.1 200.27 146.1"/>
    <path class="cls-4" d="M249.47,131.16h-11.85s0,3.89,0,3.89h11.29c1.77,0,2.97.3,3.59.91.62.6.93,1.73.93,3.37v2.48c0,1.65-.31,2.77-.93,3.38-.62.61-1.82.91-3.59.91h-11.19c-1.77,0-2.97-.3-3.59-.91-.62-.61-.93-1.73-.93-3.38v-.5s3.72-.77,3.72-.77v2.14s12.8,0,12.8,0v-4.13s-11.29,0-11.29,0c-1.76,0-2.95-.3-3.56-.91-.62-.6-.93-1.73-.93-3.37v-2.01c0-1.64.31-2.77.93-3.37.62-.6,1.8-.91,3.56-.91h10.28c1.7,0,2.88.29,3.52.87.64.59.97,1.62.97,3.1v.38s-3.72.87-3.72.87v-2.05Z"/>
    <path class="cls-4" d="M284.25,131.16h-11.85s0,3.89,0,3.89h11.29c1.77,0,2.97.3,3.59.91.62.6.93,1.73.93,3.37v2.48c0,1.65-.31,2.77-.93,3.38-.62.61-1.82.91-3.59.91h-11.19c-1.77,0-2.97-.3-3.59-.91-.62-.61-.93-1.73-.93-3.38v-.5s3.72-.77,3.72-.77v2.14s12.8,0,12.8,0v-4.13s-11.29,0-11.29,0c-1.76,0-2.95-.3-3.56-.91-.62-.6-.93-1.73-.93-3.37v-2.01c0-1.64.31-2.77.93-3.37.62-.6,1.81-.91,3.56-.91h10.28c1.7,0,2.88.29,3.52.87.65.59.97,1.62.97,3.1v.38s-3.72.87-3.72.87v-2.05Z"/>
    <rect class="cls-5" x="303.96" y="127.99" width="4.22" height="18.11"/>
    <path class="cls-4" d="M328.28,142.69h13.89s0-11.46,0-11.46h-13.89s0,11.46,0,11.46h0ZM324.07,132.27c0-1.65.31-2.77.92-3.37.62-.61,1.8-.91,3.56-.91h13.33c1.75,0,2.94.3,3.56.91.62.61.92,1.73.92,3.37v9.54c0,1.66-.31,2.78-.92,3.39-.62.6-1.81.9-3.56.9h-13.33c-1.76,0-2.94-.3-3.56-.9-.62-.6-.92-1.73-.92-3.39v-9.54Z"/>
    <path class="cls-4" d="M362.22,146.1v-18.11h2.88s12.75,10.67,12.75,10.67c.44.35.82.69,1.15,1,.33.31.63.64.91.97-.07-1.02-.11-1.73-.14-2.16-.02-.42-.04-.75-.04-.98v-9.51h3.79s0,18.11,0,18.11h-2.88s-13.29-11.19-13.29-11.19c-.32-.29-.6-.54-.84-.77-.24-.23-.46-.46-.67-.7.06.56.1,1.09.13,1.58.03.5.04.93.04,1.3v9.78h-3.78Z"/>
    <path class="cls-4" d="M404.41,138.87h7.93s-3.91-7.37-3.91-7.37l-4.03,7.37h0ZM396.31,146.1l10.24-18.1h4.06s10.38,18.1,10.38,18.1h-4.72s-2.18-3.96-2.18-3.96h-11.47s-2.11,3.96-2.11,3.96h-4.2Z"/>
    <polygon class="cls-4" points="433.84 146.1 433.84 127.99 438.05 127.99 438.05 142.69 451.63 142.69 451.63 146.1 433.84 146.1"/>
  </g>
  <path class="cls-4" d="M466.55,38.26c-3.53,0-6.37-2.88-6.37-6.37,0-3.6,2.84-6.41,6.37-6.41s6.4,2.81,6.4,6.41c0,3.49-2.85,6.37-6.4,6.37h0ZM466.55,23.98c-4.37,0-7.91,3.51-7.91,7.91s3.54,7.91,7.91,7.91,7.91-3.55,7.91-7.91-3.51-7.91-7.91-7.91h0ZM465.33,29.26v2.18s1.71,0,1.71,0c.55,0,1.13-.42,1.13-1.04,0-.68-.59-1.13-1.13-1.13h-1.71ZM468.11,32.86c.74-.22,1.79-.99,1.79-2.47,0-1.61-1.48-2.6-2.86-2.6h-3.4s0,8.22,0,8.22h1.69s0-3.04,0-3.04h.84s2,3.04,2,3.04h2.06s-2.11-3.15-2.11-3.15Z"/>
</svg>